<?xml version="1.0" encoding="UTF-8" standalone="no"?>
<!DOCTYPE svg PUBLIC "-//W3C//DTD SVG 1.1//EN"
 "http://www.w3.org/Graphics/SVG/1.1/DTD/svg11.dtd">
<!-- Generated by graphviz version 13.1.2 (20250808.2320)
 -->
<!-- Title: CFG for &#39;sum_to_n&#39; function Pages: 1 -->
<svg width="1439pt" height="593pt"
 viewBox="0.00 0.00 1439.00 593.00" xmlns="http://www.w3.org/2000/svg" xmlns:xlink="http://www.w3.org/1999/xlink">
<g id="graph0" class="graph" transform="scale(1 1) rotate(0) translate(4 588.5)">
<title>CFG for &#39;sum_to_n&#39; function</title>
<polygon fill="white" stroke="none" points="-4,4 -4,-588.5 1434.5,-588.5 1434.5,4 -4,4"/>
<text xml:space="preserve" text-anchor="middle" x="715.25" y="-7.2" font-family="Times,serif" font-size="14.00">CFG for &#39;sum_to_n&#39; function</text>
<!-- Node0x38620a40 -->
<g id="node1" class="node">
<title>Node0x38620a40</title>
<polygon fill="#e16751" fill-opacity="0.439216" stroke="#3d50c3" points="519.12,-403 519.12,-584 823.88,-584 823.88,-403 519.12,-403"/>
<text xml:space="preserve" text-anchor="start" x="527.12" y="-566.7" font-family="Courier,monospace" font-size="14.00">entry:</text>
<polyline fill="none" stroke="#3d50c3" points="519.12,-559.5 823.88,-559.5"/>
<text xml:space="preserve" text-anchor="start" x="527.12" y="-542.2" font-family="Courier,monospace" font-size="14.00">%state = alloca i32, align 4</text>
<text xml:space="preserve" text-anchor="start" x="527.12" y="-525.7" font-family="Courier,monospace" font-size="14.00"> %n.addr = alloca i32, align 4</text>
<text xml:space="preserve" text-anchor="start" x="527.12" y="-509.2" font-family="Courier,monospace" font-size="14.00"> %sum = alloca i32, align 4</text>
<text xml:space="preserve" text-anchor="start" x="527.12" y="-492.7" font-family="Courier,monospace" font-size="14.00"> %i = alloca i32, align 4</text>
<text xml:space="preserve" text-anchor="start" x="527.12" y="-476.2" font-family="Courier,monospace" font-size="14.00"> store i32 %n, ptr %n.addr, align 4</text>
<text xml:space="preserve" text-anchor="start" x="527.12" y="-459.7" font-family="Courier,monospace" font-size="14.00"> store i32 0, ptr %sum, align 4</text>
<text xml:space="preserve" text-anchor="start" x="527.12" y="-443.2" font-family="Courier,monospace" font-size="14.00"> store i32 0, ptr %i, align 4</text>
<text xml:space="preserve" text-anchor="start" x="527.12" y="-426.7" font-family="Courier,monospace" font-size="14.00"> store i32 3, ptr %state, align 4</text>
<text xml:space="preserve" text-anchor="start" x="527.12" y="-410.2" font-family="Courier,monospace" font-size="14.00"> br label %dispatcher</text>
</g>
<!-- Node0x38620b30 -->
<g id="node2" class="node">
<title>Node0x38620b30</title>
<polygon fill="#b70d28" fill-opacity="0.439216" stroke="#b70d28" points="490.25,-193.5 490.25,-366 852.75,-366 852.75,-193.5 490.25,-193.5"/>
<text xml:space="preserve" text-anchor="start" x="498.25" y="-348.7" font-family="Courier,monospace" font-size="14.00">dispatcher:</text>
<polyline fill="none" stroke="#b70d28" points="490.25,-341.5 852.75,-341.5"/>
<text xml:space="preserve" text-anchor="start" x="498.25" y="-324.2" font-family="Courier,monospace" font-size="14.00">%state_val = load i32, ptr %state, align 4</text>
<text xml:space="preserve" text-anchor="start" x="498.25" y="-307.7" font-family="Courier,monospace" font-size="14.00"> switch i32 %state_val, label %loop_end [</text>
<text xml:space="preserve" text-anchor="start" x="498.25" y="-291.2" font-family="Courier,monospace" font-size="14.00"> i32 3, label %for.cond</text>
<text xml:space="preserve" text-anchor="start" x="498.25" y="-274.7" font-family="Courier,monospace" font-size="14.00"> i32 1, label %for.body</text>
<text xml:space="preserve" text-anchor="start" x="498.25" y="-258.2" font-family="Courier,monospace" font-size="14.00"> i32 2, label %for.inc</text>
<text xml:space="preserve" text-anchor="start" x="498.25" y="-241.7" font-family="Courier,monospace" font-size="14.00"> i32 0, label %for.end</text>
<text xml:space="preserve" text-anchor="start" x="498.25" y="-225.2" font-family="Courier,monospace" font-size="14.00"> ]</text>
<polyline fill="none" stroke="#b70d28" points="490.25,-218 852.75,-218"/>
<text xml:space="preserve" text-anchor="middle" x="532.62" y="-200.7" font-family="Courier,monospace" font-size="14.00">def</text>
<polyline fill="none" stroke="#b70d28" points="575,-193.5 575,-218"/>
<text xml:space="preserve" text-anchor="middle" x="609.62" y="-200.7" font-family="Courier,monospace" font-size="14.00">3</text>
<polyline fill="none" stroke="#b70d28" points="644.25,-193.5 644.25,-218"/>
<text xml:space="preserve" text-anchor="middle" x="678.88" y="-200.7" font-family="Courier,monospace" font-size="14.00">1</text>
<polyline fill="none" stroke="#b70d28" points="713.5,-193.5 713.5,-218"/>
<text xml:space="preserve" text-anchor="middle" x="748.12" y="-200.7" font-family="Courier,monospace" font-size="14.00">2</text>
<polyline fill="none" stroke="#b70d28" points="782.75,-193.5 782.75,-218"/>
<text xml:space="preserve" text-anchor="middle" x="817.38" y="-200.7" font-family="Courier,monospace" font-size="14.00">0</text>
</g>
<!-- Node0x38620a40&#45;&gt;Node0x38620b30 -->
<g id="edge1" class="edge">
<title>Node0x38620a40&#45;&gt;Node0x38620b30</title>
<path fill="none" stroke="black" d="M671.5,-402.7C671.5,-394.41 671.5,-385.98 671.5,-377.63"/>
<polygon fill="black" stroke="black" points="675,-377.82 671.5,-367.82 668,-377.82 675,-377.82"/>
</g>
<!-- Node0x38623e70 -->
<g id="node3" class="node">
<title>Node0x38623e70</title>
<polygon fill="#c53334" fill-opacity="0.439216" stroke="#3d50c3" points="199,-25 199,-156.5 512,-156.5 512,-25 199,-25"/>
<text xml:space="preserve" text-anchor="start" x="207" y="-139.2" font-family="Courier,monospace" font-size="14.00">for.cond:</text>
<polyline fill="none" stroke="#3d50c3" points="199,-132 512,-132"/>
<text xml:space="preserve" text-anchor="start" x="207" y="-114.7" font-family="Courier,monospace" font-size="14.00">%0 = load i32, ptr %i, align 4</text>
<text xml:space="preserve" text-anchor="start" x="207" y="-98.2" font-family="Courier,monospace" font-size="14.00"> %1 = load i32, ptr %n.addr, align 4</text>
<text xml:space="preserve" text-anchor="start" x="207" y="-81.7" font-family="Courier,monospace" font-size="14.00"> %cmp = icmp slt i32 %0, %1</text>
<text xml:space="preserve" text-anchor="start" x="207" y="-65.2" font-family="Courier,monospace" font-size="14.00"> %2 = select i1 %cmp, i32 1, i32 0</text>
<text xml:space="preserve" text-anchor="start" x="207" y="-48.7" font-family="Courier,monospace" font-size="14.00"> store i32 %2, ptr %state, align 4</text>
<text xml:space="preserve" text-anchor="start" x="207" y="-32.2" font-family="Courier,monospace" font-size="14.00"> br label %dispatcher</text>
</g>
<!-- Node0x38620b30&#45;&gt;Node0x38623e70 -->
<g id="edge6" class="edge">
<title>Node0x38620b30:s1&#45;&gt;Node0x38623e70</title>
<path fill="none" stroke="black" d="M609.62,-193C606.25,-192.29 568.41,-177.87 522.9,-160.13"/>
<polygon fill="black" stroke="black" points="524.46,-156.98 513.87,-156.61 521.91,-163.5 524.46,-156.98"/>
</g>
<!-- Node0x38623f00 -->
<g id="node4" class="node">
<title>Node0x38623f00</title>
<polygon fill="#c53334" fill-opacity="0.439216" stroke="#3d50c3" points="530.25,-25 530.25,-156.5 826.75,-156.5 826.75,-25 530.25,-25"/>
<text xml:space="preserve" text-anchor="start" x="538.25" y="-139.2" font-family="Courier,monospace" font-size="14.00">for.body:</text>
<polyline fill="none" stroke="#3d50c3" points="530.25,-132 826.75,-132"/>
<text xml:space="preserve" text-anchor="start" x="538.25" y="-114.7" font-family="Courier,monospace" font-size="14.00">%3 = load i32, ptr %i, align 4</text>
<text xml:space="preserve" text-anchor="start" x="538.25" y="-98.2" font-family="Courier,monospace" font-size="14.00"> %4 = load i32, ptr %sum, align 4</text>
<text xml:space="preserve" text-anchor="start" x="538.25" y="-81.7" font-family="Courier,monospace" font-size="14.00"> %add = add nsw i32 %4, %3</text>
<text xml:space="preserve" text-anchor="start" x="538.25" y="-65.2" font-family="Courier,monospace" font-size="14.00"> store i32 %add, ptr %sum, align 4</text>
<text xml:space="preserve" text-anchor="start" x="538.25" y="-48.7" font-family="Courier,monospace" font-size="14.00"> store i32 2, ptr %state, align 4</text>
<text xml:space="preserve" text-anchor="start" x="538.25" y="-32.2" font-family="Courier,monospace" font-size="14.00"> br label %dispatcher</text>
</g>
<!-- Node0x38620b30&#45;&gt;Node0x38623f00 -->
<g id="edge7" class="edge">
<title>Node0x38620b30:s2&#45;&gt;Node0x38623f00</title>
<path fill="none" stroke="black" d="M678.88,-193C677.27,-184.96 675.94,-176.57 674.88,-168.2"/>
<polygon fill="black" stroke="black" points="678.37,-167.89 673.79,-158.34 671.41,-168.67 678.37,-167.89"/>
</g>
<!-- Node0x38624680 -->
<g id="node5" class="node">
<title>Node0x38624680</title>
<polygon fill="#c53334" fill-opacity="0.439216" stroke="#3d50c3" points="844.38,-33.25 844.38,-148.25 1132.62,-148.25 1132.62,-33.25 844.38,-33.25"/>
<text xml:space="preserve" text-anchor="start" x="852.38" y="-130.95" font-family="Courier,monospace" font-size="14.00">for.inc:</text>
<polyline fill="none" stroke="#3d50c3" points="844.38,-123.75 1132.62,-123.75"/>
<text xml:space="preserve" text-anchor="start" x="852.38" y="-106.45" font-family="Courier,monospace" font-size="14.00">%5 = load i32, ptr %i, align 4</text>
<text xml:space="preserve" text-anchor="start" x="852.38" y="-89.95" font-family="Courier,monospace" font-size="14.00"> %inc = add nsw i32 %5, 1</text>
<text xml:space="preserve" text-anchor="start" x="852.38" y="-73.45" font-family="Courier,monospace" font-size="14.00"> store i32 %inc, ptr %i, align 4</text>
<text xml:space="preserve" text-anchor="start" x="852.38" y="-56.95" font-family="Courier,monospace" font-size="14.00"> store i32 3, ptr %state, align 4</text>
<text xml:space="preserve" text-anchor="start" x="852.38" y="-40.45" font-family="Courier,monospace" font-size="14.00"> br label %dispatcher</text>
</g>
<!-- Node0x38620b30&#45;&gt;Node0x38624680 -->
<g id="edge8" class="edge">
<title>Node0x38620b30:s3&#45;&gt;Node0x38624680</title>
<path fill="none" stroke="black" d="M748.12,-193C739.12,-151 787.77,-173.24 826.5,-157 829.66,-155.68 832.86,-154.33 836.08,-152.98"/>
<polygon fill="black" stroke="black" points="837.2,-156.3 845.06,-149.2 834.48,-149.85 837.2,-156.3"/>
</g>
<!-- Node0x38624a00 -->
<g id="node6" class="node">
<title>Node0x38624a00</title>
<polygon fill="#e16751" fill-opacity="0.439216" stroke="#3d50c3" points="1150.5,-58 1150.5,-123.5 1430.5,-123.5 1430.5,-58 1150.5,-58"/>
<text xml:space="preserve" text-anchor="start" x="1158.5" y="-106.2" font-family="Courier,monospace" font-size="14.00">for.end:</text>
<polyline fill="none" stroke="#3d50c3" points="1150.5,-99 1430.5,-99"/>
<text xml:space="preserve" text-anchor="start" x="1158.5" y="-81.7" font-family="Courier,monospace" font-size="14.00">%6 = load i32, ptr %sum, align 4</text>
<text xml:space="preserve" text-anchor="start" x="1158.5" y="-65.2" font-family="Courier,monospace" font-size="14.00"> ret i32 %6</text>
</g>
<!-- Node0x38620b30&#45;&gt;Node0x38624a00 -->
<g id="edge9" class="edge">
<title>Node0x38620b30:s4&#45;&gt;Node0x38624a00</title>
<path fill="none" stroke="black" d="M853,-205.75C983.04,-205.75 1016.89,-194.2 1141.5,-157 1166.49,-149.54 1192.83,-138.97 1216.31,-128.51"/>
<polygon fill="black" stroke="black" points="1217.48,-131.82 1225.15,-124.51 1214.59,-125.45 1217.48,-131.82"/>
</g>
<!-- Node0x38623da0 -->
<g id="node7" class="node">
<title>Node0x38623da0</title>
<polygon fill="#c53334" fill-opacity="0.439216" stroke="#3d50c3" points="0,-66.25 0,-115.25 181,-115.25 181,-66.25 0,-66.25"/>
<text xml:space="preserve" text-anchor="start" x="8" y="-97.95" font-family="Courier,monospace" font-size="14.00">loop_end:</text>
<polyline fill="none" stroke="#3d50c3" points="0,-90.75 181,-90.75"/>
<text xml:space="preserve" text-anchor="start" x="8" y="-73.45" font-family="Courier,monospace" font-size="14.00">br label %dispatcher</text>
</g>
<!-- Node0x38620b30&#45;&gt;Node0x38623da0 -->
<g id="edge5" class="edge">
<title>Node0x38620b30:s0&#45;&gt;Node0x38623da0</title>
<path fill="none" stroke="black" d="M489.25,-205.75C345.72,-205.75 306.93,-205.64 181.5,-157 159.81,-148.59 137.92,-135.01 120.93,-122.42"/>
<polygon fill="black" stroke="black" points="123.29,-119.81 113.23,-116.48 119.02,-125.36 123.29,-119.81"/>
</g>
<!-- Node0x38623e70&#45;&gt;Node0x38620b30 -->
<g id="edge2" class="edge">
<title>Node0x38623e70&#45;&gt;Node0x38620b30</title>
<path fill="none" stroke="black" d="M512.5,-150.87C550,-165.84 583.83,-179.8 599.94,-187.29"/>
<polygon fill="black" stroke="black" points="598.1,-190.28 608.53,-192.1 601.51,-184.17 598.1,-190.28"/>
</g>
<!-- Node0x38623f00&#45;&gt;Node0x38620b30 -->
<g id="edge3" class="edge">
<title>Node0x38623f00&#45;&gt;Node0x38620b30</title>
<path fill="none" stroke="black" d="M684,-156.91C683.27,-165 682.25,-173.29 680.95,-181.41"/>
<polygon fill="black" stroke="black" points="677.51,-180.79 679.19,-191.25 684.4,-182.02 677.51,-180.79"/>
</g>
<!-- Node0x38624680&#45;&gt;Node0x38620b30 -->
<g id="edge4" class="edge">
<title>Node0x38624680&#45;&gt;Node0x38620b30</title>
<path fill="none" stroke="black" d="M864.43,-148.61C857.7,-151.46 851.02,-154.26 844.5,-157 809.84,-171.53 767.24,-155.25 752.22,-181.77"/>
<polygon fill="black" stroke="black" points="748.96,-180.5 748.76,-191.09 755.52,-182.93 748.96,-180.5"/>
</g>
<!-- Node0x38623da0&#45;&gt;Node0x38620b30 -->
<g id="edge10" class="edge">
<title>Node0x38623da0&#45;&gt;Node0x38620b30</title>
<path fill="none" stroke="black" d="M127.51,-115.56C147.81,-129.81 173.79,-147.03 199.5,-157 320.89,-204.08 361.13,-205.69 477.39,-205.75"/>
<polygon fill="black" stroke="black" points="477.37,-209.25 487.37,-205.75 477.37,-202.25 477.37,-209.25"/>
</g>
</g>
</svg>
