<?xml version="1.0" encoding="UTF-8" standalone="no"?>
<!DOCTYPE svg PUBLIC "-//W3C//DTD SVG 1.1//EN"
 "http://www.w3.org/Graphics/SVG/1.1/DTD/svg11.dtd">
<!-- Generated by graphviz version 13.1.2 (20250808.2320)
 -->
<!-- Title: CFG for &#39;sum_to_n&#39; function Pages: 1 -->
<svg width="640pt" height="629pt"
 viewBox="0.00 0.00 640.00 629.00" xmlns="http://www.w3.org/2000/svg" xmlns:xlink="http://www.w3.org/1999/xlink">
<g id="graph0" class="graph" transform="scale(1 1) rotate(0) translate(4 625)">
<title>CFG for &#39;sum_to_n&#39; function</title>
<polygon fill="white" stroke="none" points="-4,4 -4,-625 636.25,-625 636.25,4 -4,4"/>
<text xml:space="preserve" text-anchor="middle" x="316.12" y="-7.2" font-family="Times,serif" font-size="14.00">CFG for &#39;sum_to_n&#39; function</text>
<!-- Node0x39274830 -->
<g id="node1" class="node">
<title>Node0x39274830</title>
<polygon fill="#d65244" fill-opacity="0.439216" stroke="#3d50c3" points="171.88,-472.5 171.88,-620.5 476.62,-620.5 476.62,-472.5 171.88,-472.5"/>
<text xml:space="preserve" text-anchor="start" x="179.88" y="-603.2" font-family="Courier,monospace" font-size="14.00">entry:</text>
<polyline fill="none" stroke="#3d50c3" points="171.88,-596 476.62,-596"/>
<text xml:space="preserve" text-anchor="start" x="179.88" y="-578.7" font-family="Courier,monospace" font-size="14.00">%n.addr = alloca i32, align 4</text>
<text xml:space="preserve" text-anchor="start" x="179.88" y="-562.2" font-family="Courier,monospace" font-size="14.00"> %sum = alloca i32, align 4</text>
<text xml:space="preserve" text-anchor="start" x="179.88" y="-545.7" font-family="Courier,monospace" font-size="14.00"> %i = alloca i32, align 4</text>
<text xml:space="preserve" text-anchor="start" x="179.88" y="-529.2" font-family="Courier,monospace" font-size="14.00"> store i32 %n, ptr %n.addr, align 4</text>
<text xml:space="preserve" text-anchor="start" x="179.88" y="-512.7" font-family="Courier,monospace" font-size="14.00"> store i32 0, ptr %sum, align 4</text>
<text xml:space="preserve" text-anchor="start" x="179.88" y="-496.2" font-family="Courier,monospace" font-size="14.00"> store i32 0, ptr %i, align 4</text>
<text xml:space="preserve" text-anchor="start" x="179.88" y="-479.7" font-family="Courier,monospace" font-size="14.00"> br label %for.cond</text>
</g>
<!-- Node0x39274920 -->
<g id="node2" class="node">
<title>Node0x39274920</title>
<polygon fill="#b70d28" fill-opacity="0.439216" stroke="#b70d28" points="134.75,-312.5 134.75,-435.5 513.75,-435.5 513.75,-312.5 134.75,-312.5"/>
<text xml:space="preserve" text-anchor="start" x="142.75" y="-418.2" font-family="Courier,monospace" font-size="14.00">for.cond:</text>
<polyline fill="none" stroke="#b70d28" points="134.75,-411 513.75,-411"/>
<text xml:space="preserve" text-anchor="start" x="142.75" y="-393.7" font-family="Courier,monospace" font-size="14.00">%0 = load i32, ptr %i, align 4</text>
<text xml:space="preserve" text-anchor="start" x="142.75" y="-377.2" font-family="Courier,monospace" font-size="14.00"> %1 = load i32, ptr %n.addr, align 4</text>
<text xml:space="preserve" text-anchor="start" x="142.75" y="-360.7" font-family="Courier,monospace" font-size="14.00"> %cmp = icmp slt i32 %0, %1</text>
<text xml:space="preserve" text-anchor="start" x="142.75" y="-344.2" font-family="Courier,monospace" font-size="14.00"> br i1 %cmp, label %for.body, label %for.end</text>
<polyline fill="none" stroke="#b70d28" points="134.75,-337 513.75,-337"/>
<text xml:space="preserve" text-anchor="middle" x="229.38" y="-319.7" font-family="Courier,monospace" font-size="14.00">T</text>
<polyline fill="none" stroke="#b70d28" points="324,-312.5 324,-337"/>
<text xml:space="preserve" text-anchor="middle" x="418.62" y="-319.7" font-family="Courier,monospace" font-size="14.00">F</text>
</g>
<!-- Node0x39274830&#45;&gt;Node0x39274920 -->
<g id="edge1" class="edge">
<title>Node0x39274830&#45;&gt;Node0x39274920</title>
<path fill="none" stroke="black" d="M324.25,-472.2C324.25,-463.98 324.25,-455.61 324.25,-447.4"/>
<polygon fill="black" stroke="black" points="327.75,-447.45 324.25,-437.45 320.75,-447.45 327.75,-447.45"/>
</g>
<!-- Node0x39277410 -->
<g id="node3" class="node">
<title>Node0x39277410</title>
<polygon fill="#b70d28" fill-opacity="0.439216" stroke="#b70d28" points="0,-160.5 0,-275.5 296.5,-275.5 296.5,-160.5 0,-160.5"/>
<text xml:space="preserve" text-anchor="start" x="8" y="-258.2" font-family="Courier,monospace" font-size="14.00">for.body:</text>
<polyline fill="none" stroke="#b70d28" points="0,-251 296.5,-251"/>
<text xml:space="preserve" text-anchor="start" x="8" y="-233.7" font-family="Courier,monospace" font-size="14.00">%2 = load i32, ptr %i, align 4</text>
<text xml:space="preserve" text-anchor="start" x="8" y="-217.2" font-family="Courier,monospace" font-size="14.00"> %3 = load i32, ptr %sum, align 4</text>
<text xml:space="preserve" text-anchor="start" x="8" y="-200.7" font-family="Courier,monospace" font-size="14.00"> %add = add nsw i32 %3, %2</text>
<text xml:space="preserve" text-anchor="start" x="8" y="-184.2" font-family="Courier,monospace" font-size="14.00"> store i32 %add, ptr %sum, align 4</text>
<text xml:space="preserve" text-anchor="start" x="8" y="-167.7" font-family="Courier,monospace" font-size="14.00"> br label %for.inc</text>
</g>
<!-- Node0x39274920&#45;&gt;Node0x39277410 -->
<g id="edge2" class="edge">
<title>Node0x39274920:s0&#45;&gt;Node0x39277410</title>
<path fill="none" stroke="black" d="M133.75,-324.75C114.58,-324.75 113.27,-307.48 118.52,-286.89"/>
<polygon fill="black" stroke="black" points="121.86,-287.93 121.37,-277.35 115.15,-285.93 121.86,-287.93"/>
</g>
<!-- Node0x39277aa0 -->
<g id="node4" class="node">
<title>Node0x39277aa0</title>
<polygon fill="#d65244" fill-opacity="0.439216" stroke="#3d50c3" points="352.25,-185.25 352.25,-250.75 632.25,-250.75 632.25,-185.25 352.25,-185.25"/>
<text xml:space="preserve" text-anchor="start" x="360.25" y="-233.45" font-family="Courier,monospace" font-size="14.00">for.end:</text>
<polyline fill="none" stroke="#3d50c3" points="352.25,-226.25 632.25,-226.25"/>
<text xml:space="preserve" text-anchor="start" x="360.25" y="-208.95" font-family="Courier,monospace" font-size="14.00">%5 = load i32, ptr %sum, align 4</text>
<text xml:space="preserve" text-anchor="start" x="360.25" y="-192.45" font-family="Courier,monospace" font-size="14.00"> ret i32 %5</text>
</g>
<!-- Node0x39274920&#45;&gt;Node0x39277aa0 -->
<g id="edge3" class="edge">
<title>Node0x39274920:s1&#45;&gt;Node0x39277aa0</title>
<path fill="none" stroke="black" d="M514.25,-324.75C541.51,-324.75 530.72,-290.65 516.3,-261.18"/>
<polygon fill="black" stroke="black" points="519.46,-259.68 511.79,-252.36 513.23,-262.86 519.46,-259.68"/>
</g>
<!-- Node0x39277a40 -->
<g id="node5" class="node">
<title>Node0x39277a40</title>
<polygon fill="#b70d28" fill-opacity="0.439216" stroke="#b70d28" points="88,-25 88,-123.5 384.5,-123.5 384.5,-25 88,-25"/>
<text xml:space="preserve" text-anchor="start" x="96" y="-106.2" font-family="Courier,monospace" font-size="14.00">for.inc:</text>
<polyline fill="none" stroke="#b70d28" points="88,-99 384.5,-99"/>
<text xml:space="preserve" text-anchor="start" x="96" y="-81.7" font-family="Courier,monospace" font-size="14.00">%4 = load i32, ptr %i, align 4</text>
<text xml:space="preserve" text-anchor="start" x="96" y="-65.2" font-family="Courier,monospace" font-size="14.00"> %inc = add nsw i32 %4, 1</text>
<text xml:space="preserve" text-anchor="start" x="96" y="-48.7" font-family="Courier,monospace" font-size="14.00"> store i32 %inc, ptr %i, align 4</text>
<text xml:space="preserve" text-anchor="start" x="96" y="-32.2" font-family="Courier,monospace" font-size="14.00"> br label %for.cond, !llvm.loop !6</text>
</g>
<!-- Node0x39277410&#45;&gt;Node0x39277a40 -->
<g id="edge4" class="edge">
<title>Node0x39277410&#45;&gt;Node0x39277a40</title>
<path fill="none" stroke="black" d="M183.54,-160.16C188.96,-151.43 194.56,-142.41 200,-133.64"/>
<polygon fill="black" stroke="black" points="202.95,-135.52 205.26,-125.18 197.01,-131.83 202.95,-135.52"/>
</g>
<!-- Node0x39277a40&#45;&gt;Node0x39274920 -->
<g id="edge5" class="edge">
<title>Node0x39277a40&#45;&gt;Node0x39274920</title>
<path fill="none" stroke="black" d="M283.62,-123.59C292.18,-134.76 300.03,-147.17 305.25,-160 323.31,-204.42 327.98,-258.24 328.18,-300.66"/>
<polygon fill="black" stroke="black" points="324.68,-300.5 328.13,-310.51 331.68,-300.53 324.68,-300.5"/>
</g>
</g>
</svg>
